<?xml version="1.0" encoding="UTF-8"?><svg id="Layer_1" xmlns="http://www.w3.org/2000/svg" viewBox="0 0 470 470"><defs><style>.cls-1{fill:#fff;font-family:Termina-Black, Termina;font-size:87.89px;}.cls-2,.cls-3,.cls-4,.cls-5,.cls-6,.cls-7,.cls-8,.cls-9,.cls-10,.cls-11,.cls-12,.cls-13,.cls-14{fill:#f15a24;}.cls-3{opacity:0;}.cls-3,.cls-4,.cls-5,.cls-6,.cls-7,.cls-8,.cls-9,.cls-10,.cls-11,.cls-12,.cls-13,.cls-14{stroke-miterlimit:10;stroke-width:18px;}.cls-3,.cls-7,.cls-10,.cls-14{stroke:#fff;}.cls-4{stroke:#f15a24;}.cls-5,.cls-11{stroke:#fef9b5;}.cls-6{stroke:#fcee21;}.cls-8,.cls-12{stroke:#fdf46b;}.cls-9{stroke:#fac8b6;}.cls-9,.cls-10,.cls-11{opacity:.33;}.cls-12,.cls-13,.cls-14{opacity:.67;}.cls-13{stroke:#f6916d;}</style></defs><rect class="cls-2" width="470" height="470" rx="13.54" ry="13.54"/><text class="cls-1" transform="translate(26.34 335.85) scale(.82 1)"><tspan x="0" y="0">Food</tspan><tspan x="0" y="90">Delivery</tspan></text><g><line class="cls-4" x1="11" y1="25.26" x2="11" y2="215.68"/><line class="cls-13" x1="39.33" y1="34.84" x2="39.33" y2="208.68"/><line class="cls-9" x1="67.67" y1="44.42" x2="67.67" y2="201.68"/><line class="cls-3" x1="96" y1="54" x2="96" y2="194.68"/><path class="cls-11" d="M120.33,44.09h0c9.48,25.79,9.59,146.8,.32,172.67l-.32,1.97"/><path class="cls-12" d="M144.67,34.17h0c18.95,51.57,19.18,154.53,.65,206.25l-.65,2.34"/><path class="cls-6" d="M169,24.26h0c28.43,77.36,28.77,162.25,.97,239.84l-.97,2.71"/><path class="cls-8" d="M212.38,27.2h0c18.95,51.57,19.18,159.7,.65,211.43l-.65,2.4"/><path class="cls-5" d="M255.75,30.14h0c9.48,25.79,9.59,157.15,.32,183.02l-.32,2.09"/><line class="cls-7" x1="299.13" y1="33.09" x2="299.13" y2="189.47"/><line class="cls-14" x1="327.14" y1="45.06" x2="327.09" y2="173.31"/><line class="cls-10" x1="355.16" y1="57.03" x2="355.04" y2="157.16"/><line class="cls-3" x1="383.17" y1="69" x2="383" y2="141"/><line class="cls-9" x1="408.45" y1="60.7" x2="408.33" y2="146.28"/><line class="cls-13" x1="433.72" y1="52.39" x2="433.67" y2="151.57"/><line class="cls-4" x1="459" y1="44.09" x2="459" y2="156.85"/></g></svg>